<svg xmlns="http://www.w3.org/2000/svg" viewBox="0 0 136.1 133.8"><defs><style>.a{fill:#001871;}</style></defs><path class="a" d="M5.8,133.8H3.5a3.57,3.57,0,0,1-2.6-.9,3.33,3.33,0,0,1-.9-2.5v-6.7a3.18,3.18,0,0,1,.9-2.5,3.57,3.57,0,0,1,2.6-.9H5.8a3.33,3.33,0,0,1,2.5.9,3.33,3.33,0,0,1,.9,2.5v1a.47.47,0,0,1-.5.5H6.9c-.3,0-.4-.2-.4-.5v-.9a1.49,1.49,0,0,0-.3-1,1.33,1.33,0,0,0-1-.3H3.8a1.22,1.22,0,0,0-.9.3,1.33,1.33,0,0,0-.3,1v6.4a1.49,1.49,0,0,0,.3,1,1.22,1.22,0,0,0,.9.3H5.2a1.49,1.49,0,0,0,1-.3,1.33,1.33,0,0,0,.3-1v-.9c0-.3.1-.5.4-.5H8.7a.47.47,0,0,1,.5.5v1a3.33,3.33,0,0,1-.9,2.5A3,3,0,0,1,5.8,133.8Z"/><path class="a" d="M13.8,120.8v12.6c0,.3-.1.4-.4.4H11.6c-.3,0-.4-.1-.4-.4V120.8c0-.3.1-.4.4-.4h1.8C13.6,120.3,13.8,120.5,13.8,120.8Z"/><path class="a" d="M21.6,133.8H18.9c-.3,0-.5-.1-.5-.4L15,120.8c-.1-.3,0-.5.4-.5h2c.3,0,.4.1.5.4L20.1,131h.1l2.2-10.2c.1-.3.2-.4.5-.4h2c.3,0,.5.2.4.5L22,133.5C22,133.7,21.8,133.8,21.6,133.8Z"/><path class="a" d="M29.2,120.8v12.6c0,.3-.1.4-.4.4H27c-.3,0-.4-.1-.4-.4V120.8c0-.3.1-.4.4-.4h1.8C29.1,120.3,29.2,120.5,29.2,120.8Z"/><path class="a" d="M38.9,133.8H32c-.3,0-.4-.1-.4-.4V120.8c0-.3.1-.4.4-.4h1.8c.3,0,.4.1.4.4v10.5c0,.2.1.2.3.2h4.4c.3,0,.4.2.4.5v1.4C39.3,133.7,39.2,133.8,38.9,133.8Z"/><path class="a" d="M45.9,133.8h-2c-.3,0-.3-.1-.3-.4l3.3-12.6a.55.55,0,0,1,.6-.4h2.9c.3,0,.6.1.6.4l3.3,12.6c.1.3,0,.4-.3.4H52c-.2,0-.3,0-.3-.1a.37.37,0,0,1-.1-.3l-.6-2.3H46.9l-.6,2.3a.44.44,0,0,1-.1.3C46.2,133.8,46.1,133.8,45.9,133.8ZM49,122.9,47.5,129h3.1L49,122.9Z"/><path class="a" d="M58.5,120.8v12.6c0,.3-.1.4-.4.4H56.3c-.3,0-.4-.1-.4-.4V120.8c0-.3.1-.4.4-.4h1.8C58.3,120.3,58.5,120.5,58.5,120.8Z"/><path class="a" d="M63,133.8H61.2c-.3,0-.4-.1-.4-.4V120.8c0-.3.1-.4.4-.4h5a3.74,3.74,0,0,1,2.6.9,3.33,3.33,0,0,1,.9,2.5v1.6a2.93,2.93,0,0,1-1.9,3.1v.1l2.2,4.7c.1.3,0,.5-.4.5H67.9c-.3,0-.4,0-.5-.1a1.38,1.38,0,0,1-.3-.4L65,128.8H63.6c-.2,0-.3.1-.3.2v4.3C63.4,133.7,63.3,133.8,63,133.8Zm.7-7.1h2.1a1.49,1.49,0,0,0,1-.3,1.22,1.22,0,0,0,.3-.9v-1.6a1.22,1.22,0,0,0-.3-.9,1.33,1.33,0,0,0-1-.3H63.7c-.2,0-.2.1-.2.2v3.6C63.4,126.6,63.5,126.7,63.7,126.7Z"/><path class="a" d="M78,133.8H76.2c-.3,0-.4-.1-.4-.4V120.8c0-.3.1-.4.4-.4h5.1a3.12,3.12,0,0,1,3.4,3.4v2a3.12,3.12,0,0,1-3.4,3.4H78.7c-.2,0-.3.1-.3.2v4C78.5,133.7,78.3,133.8,78,133.8Zm.7-7h2.2c.4,0,.8-.1.9-.3a1.22,1.22,0,0,0,.3-.9v-1.8a1.49,1.49,0,0,0-.3-1,1.22,1.22,0,0,0-.9-.3H78.7c-.2,0-.2.1-.2.2v3.8C78.5,126.8,78.6,126.8,78.7,126.8Z"/><path class="a" d="M87.8,133.8h-2c-.3,0-.3-.1-.3-.4l3.3-12.6a.55.55,0,0,1,.6-.4h2.8c.3,0,.6.1.6.4l3.3,12.6c.1.3,0,.4-.3.4h-2c-.2,0-.3,0-.3-.1a.37.37,0,0,1-.1-.3l-.6-2.3H88.7l-.6,2.3a.44.44,0,0,1-.1.3C88.1,133.8,88,133.8,87.8,133.8Zm3.1-10.9L89.4,129h3.1l-1.6-6.1Z"/><path class="a" d="M101.8,133.8H100c-.3,0-.5-.1-.5-.4V122.9c0-.2-.1-.2-.2-.2H96.9c-.3,0-.4-.1-.4-.4v-1.5c0-.3.1-.4.4-.4h7.9c.3,0,.4.1.4.4v1.4c0,.3-.1.4-.4.4h-2.4c-.2,0-.3.1-.3.2v10.5C102.2,133.7,102.1,133.8,101.8,133.8Z"/><path class="a" d="M108.6,133.8h-1.8c-.3,0-.4-.1-.4-.4V120.8c0-.3.1-.4.4-.4h5a3.74,3.74,0,0,1,2.6.9,3.33,3.33,0,0,1,.9,2.5v1.6a2.93,2.93,0,0,1-1.9,3.1v.1l2.2,4.7c.1.3,0,.5-.4.5h-1.7c-.3,0-.4,0-.5-.1a1.38,1.38,0,0,1-.3-.4l-2.1-4.5h-1.4c-.2,0-.3.1-.3.2v4.3C109,133.7,108.9,133.8,108.6,133.8Zm.6-7.1h2.1a1.49,1.49,0,0,0,1-.3,1.22,1.22,0,0,0,.3-.9v-1.6a1.22,1.22,0,0,0-.3-.9,1.33,1.33,0,0,0-1-.3h-2.1c-.2,0-.2.1-.2.2v3.6A.22.22,0,0,0,109.2,126.7Z"/><path class="a" d="M122.9,133.8h-2.3a3.57,3.57,0,0,1-2.6-.9,3.33,3.33,0,0,1-.9-2.5v-6.7a3.18,3.18,0,0,1,.9-2.5,3.57,3.57,0,0,1,2.6-.9h2.3a3.57,3.57,0,0,1,2.6.9,3.33,3.33,0,0,1,.9,2.5v6.7a3.18,3.18,0,0,1-.9,2.5A3.57,3.57,0,0,1,122.9,133.8Zm-1.9-2.3h1.5a1.49,1.49,0,0,0,1-.3,1.33,1.33,0,0,0,.3-1v-6.4a1.49,1.49,0,0,0-.3-1,1.33,1.33,0,0,0-1-.3H121c-.4,0-.8.1-.9.3a1.33,1.33,0,0,0-.3,1v6.4a1.49,1.49,0,0,0,.3,1Q120.25,131.5,121,131.5Z"/><path class="a" d="M135.7,133.8h-6.9c-.3,0-.4-.1-.4-.4V120.8c0-.3.1-.4.4-.4h1.8c.3,0,.4.1.4.4v10.5c0,.2.1.2.3.2h4.4c.3,0,.4.2.4.5v1.4C136.1,133.7,136,133.8,135.7,133.8Z"/><path class="a" d="M81.15,70.2l-8.7-14.5,41-49L126.75,0,68.05,111.4,9.35,0l13.3,6.7,41,49L55,70.2Zm27.5-29.9h23.5l-2-8.3L114,30.2l-5.3,10.1Zm-8,15.3h35.2l-3-12.7h-25.7l-6.5,12.7Zm-7.2,13.5,37.2-10.8H99.15l-5.7,10.8ZM22.25,30.3,6,32,4,40.3h23.5l-5.2-10ZM29,42.9H3.25l-3,12.7h35.2L29,42.9Zm8,15.4H5.45l37.2,10.8L37,58.3Z"/></svg>